<?xml version="1.0" standalone="no"?><!DOCTYPE svg PUBLIC "-//W3C//DTD SVG 1.1//EN" "http://www.w3.org/Graphics/SVG/1.1/DTD/svg11.dtd"><svg t="1732889704609" class="icon" viewBox="0 0 1024 1024" version="1.1" xmlns="http://www.w3.org/2000/svg" p-id="5433" xmlns:xlink="http://www.w3.org/1999/xlink" width="200" height="200"><path d="M802.3710983944219 923.569470654641c-15.149797050342714 0-25.249660369730368 10.099864700228474-25.249660369730368 25.249660369730368s10.099864700228474 25.249660369730368 25.249660369730368 25.249660369730368c42.92442290470979 0 75.74898249003193-32.82455958532214 75.74898249003193-75.74898110919112V145.8799191155464c0-42.92442290470979-32.82455958532214-75.74898249003193-75.74898249003193-75.74898249003193H226.67883395569243c-42.92442290470979 0-75.74898249003193 32.82455958532214-75.74898249003193 75.74898249003193v752.4398911693643c0 42.92442290470979 32.82455958532214 75.74898249003193 75.74898249003193 75.74898110919112h479.74355392908103c15.149797050342714 0 25.249660369730368-10.099864700228474 25.249660369730368-25.249660369730368s-10.099864700228474-25.249660369730368-25.249660369730368-25.249660369730368h-479.74355392908103c-15.149797050342714 0-25.249660369730368-10.099864700228474-25.24966175057119-25.249660369730368V145.8799191155464c0-15.149797050342714 10.099864700228474-25.249660369730368 25.24966175057119-25.249660369730368h439.34409650900807v295.4210307445359c0 15.149797050342714 10.099864700228474 25.249660369730368 25.249660369730368 25.249660369730368s25.249660369730368-10.099864700228474 25.24966175057119-25.249660369730368V120.63025874581592h88.37381267489712c15.149797050342714 0 25.249660369730368 10.099864700228474 25.249660369730368 25.249660369730368v752.4398911693643c-2.524965484636708 15.149797050342714-12.624830184865184 25.249660369730368-27.774627235207902 25.249660369730368z" fill="" p-id="5434"></path></svg>